# xmcd CD database file
#
# Track frame offsets:
#	150
#	31637
#	38257
#	58802
#	91732
#	104840
#	159110
#	200882
#	257257
#
# Disc length: 4548 seconds
#
# Revision: 0
# Processed by: cddbd v1.5.2PL0 Copyright (c) Steve Scherf et al.
# Submitted via: CDex 1.70beta3
#
DISCID=6511c209
DTITLE=Shin-Okubo Gentlemen - Live
DYEAR=1999
DGENRE=Jazz
TTITLE0=MC
TTITLE1=地底人と最低人
TTITLE2=駅前シャッフル
TTITLE3=情熱の通り雨フラメンコバージョン
TTITLE4=MC
TTITLE5=グレートの涙
TTITLE6=腰くだけ
TTITLE7=グレートルーマニア
TTITLE8=オタのトルコ
EXTD=YEAR: 1999
EXTT0=
EXTT1=
EXTT2=
EXTT3=
EXTT4=
EXTT5=
EXTT6=
EXTT7=
EXTT8=
PLAYORDER=
